<svg xmlns="http://www.w3.org/2000/svg">

  <symbol id="icon-menu" viewBox="0 0 1024 1024">
    <path d="M942.6,192.6H81.4c-54.4,0-78.9,30.8-78.9,68.4c0,37.6,24.5,68.4,78.9,68.4h861.2 c54.4,0,78.9-30.8,78.9-68.4C1021.5,223.4,997,192.6,942.6,192.6z"/>
    <path  d="M942.6,443.6H81.4C27,443.6,2.5,474.4,2.5,512s24.5,68.4,78.9,68.4h861.2c54.4,0,78.9-30.8,78.9-68.4 S997,443.6,942.6,443.6z"/>
    <path d="M942.6,694.5H81.4c-54.4,0-78.9,30.8-78.9,68.4c0,37.6,24.5,68.4,78.9,68.4h861.2 c54.4,0,78.9-30.8,78.9-68.4C1021.5,725.3,997,694.5,942.6,694.5z"/>
  </symbol>

  <symbol id="icon-close" viewBox="0 0 1024 1024">
    <path d="M634,511.5l364.4-364.4c33.5-33.5,33.5-87.9,0-121.4c-33.5-33.5-87.9-33.5-121.5,0L512.5,390L148.1,25.7 c-33.5-33.6-87.9-33.6-121.5,0c-33.5,33.5-33.5,87.9,0,121.4L391,511.5L26.6,875.9c-33.5,33.5-33.5,87.9,0,121.4 c33.5,33.6,87.9,33.6,121.5,0L512.5,633l364.4,364.3c33.5,33.6,87.9,33.6,121.5,0c33.5-33.5,33.5-87.9,0-121.4L634,511.5z" />
  </symbol>

  <symbol id="icon-folder" viewBox="0 0 1024 1024">
    <path d="M983.623,277.037c-27.074-27.076-59.485-40.613-97.234-40.613H472.85v-19.691c0-37.744-13.543-70.154-40.614-97.224 c-27.076-27.077-59.489-40.622-97.234-40.622H138.081c-37.754,0-70.163,13.543-97.234,40.622 c-27.078,27.07-40.612,59.48-40.612,97.224v590.774c0,37.737,13.535,70.148,40.612,97.22 c27.075,27.081,59.489,40.627,97.234,40.627h748.308c37.749,0,70.16-13.543,97.229-40.627 c27.086-27.073,40.616-59.484,40.616- 97.22V374.278C1024.234,336.533,1010.704,304.124,983.623,277.037z"/>
  </symbol>

  <symbol id="icon-blogpost" viewBox="0 0 1024 1024">
    <path d="M623.968,69.302L0,693.272v141.422h141.42l623.97-623.97L623.968,69.302z M116.568,774.694H60v-56.568l563.97-563.97l56.57,56.568L116.568,774.694z"/>
    <rect y="894.698" width="1024" height="60"/>
    <rect x="300" y="774.698" width="724" height="60"/>
  </symbol>

  <symbol id="icon-text" viewBox="0 0 1024 1024">
    <path d="M342.164,830.565H151.647c-36.394,0-66.512-28.604-66.512-64.998V175.032c0-36.394,30.118-64.778,66.512-64.778h461.091 c36.394,0,66.102,28.384,66.102,64.778v494.852l85.15-101.235V111.8c0-47.858-37.845-86.68-85.655-86.68H82.644 C36.694,25.12,0,62.396,0,108.315v722.787c0,47.874,38.27,86.822,86.191,86.822h334.5l-39.516-34.344 C363.861,868.568,350.836,850.214,342.164,830.565z"/>
    <path d="M577.259,219.405h-382.39c-23.511,0-42.434,19.08-42.434,42.56c0,23.448,18.954,42.543,42.434,42.543h382.357 c23.527,0,42.387-19.096,42.387-42.543C619.676,238.517,600.754,219.405,577.259,219.405z"/>
    <path d="M577.259,361.275h-382.39c-23.511,0-42.434,19.049-42.434,42.56c0,23.385,18.954,42.575,42.434,42.575h382.357 c23.527,0,42.387-19.19,42.387-42.575C619.676,380.324,600.754,361.275,577.259,361.275z"/>
    <path d="M577.259,503.177h-382.39c-23.511,0-42.434,18.024-42.434,41.535c0,23.4,18.954,41.408,42.434,41.408h382.357 c23.527,0,42.387-18.103,42.387-41.408C619.676,521.201,600.754,503.177,577.259,503.177z"/>
    <path d="M152.388,679.976c0,23.495,18.97,41.439,42.449,41.439h142.675c5.976-15.264,15.138-32.987,27.674-47.747 c13.167-15.264,28.699-26.491,45.603-35.259h-215.92C171.358,638.473,152.388,656.574,152.388,679.976z"/>
    <path d="M577.259,638.473h-31.885c10.439,4.446,20.437,11.857,29.582,19.742l42.354,36.268c1.608-4.353,2.429-9.02,2.429-14.129  C619.676,657.079,600.754,638.473,577.259,638.473z"/>
    <path d="M997.808,524.749c-31.158-26.744-78.149-22.928-104.829,8.389L648.722,819.496L526.625,714.604 c-31.269-26.681-78.181-23.148-104.893,8.01c-26.775,31.223-23.164,78.087,8.01,104.83l178.674,153.461 c13.656,11.542,30.718,17.976,48.441,17.976c1.987,0,3.848-0.063,5.897-0.252c19.585-1.514,37.971-10.849,50.743-25.86 l292.792-343.188C1032.814,598.356,1029.188,551.492,997.808,524.749z"/>
  </symbol>

  <symbol id="icon-list" viewBox="0 0 1024 1024">
    <path d="M972.922,884.829H288.177c-28.222,0-51.095-22.874-51.095-51.096s22.874-51.095,51.095-51.095h684.727 c28.223,0,51.096,22.873,51.096,51.095S1001.144,884.829,972.922,884.829z"/>
    <path d="M972.922,564.104H288.177c-28.222,0-51.095-22.873-51.095-51.095s22.874-51.096,51.095-51.096h684.727  c28.223,0,51.096,22.874,51.096,51.096C1024.018,541.23,1001.144,564.104,972.922,564.104z"/>
    <path d="M972.922,243.379H288.177c-28.222,0-51.095-22.874-51.095-51.095s22.874-51.095,51.095-51.095h684.727  c28.223,0,51.096,22.874,51.096,51.095S1001.144,243.379,972.922,243.379z"/>
    <circle cx="68.621" cy="196.235" r="68.621"/>
    <circle cx="68.621" cy="513.009" r="68.621"/>
    <circle cx="68.621" cy="829.782" r="68.621"/>
  </symbol>

  <symbol id="icon-bubble" viewBox="0 0 1024 1024">
    <path d="M956.238,255.96c-45.709-56.185-107.806-100.569-186.281-133.141c-78.471-32.572-164.19-48.856-257.145-48.856 c-92.951,0-178.668,16.284-257.144,48.856c-78.475,32.572-140.568,76.949-186.284,133.141 C23.667,312.15,0.813,373.384,0.813,439.671c0,57.14,17.232,110.678,51.712,160.581c34.479,49.904,81.616,91.815,141.432,125.718 c-4.195,15.233-9.146,29.707-14.862,43.434c-5.714,13.711-10.857,24.952-15.428,33.716c-4.575,8.757-10.76,18.475-18.576,29.133 c-7.804,10.672-13.708,18.199-17.709,22.583c-3.996,4.382-10.567,11.61-19.715,21.711c-9.138,10.09-15.045,16.673-17.709,19.722 c-0.386,0.193-1.908,1.896-4.574,5.15c-2.664,3.232-4.001,4.842-4.001,4.842l-3.428,5.145c-1.908,2.842-2.764,4.657-2.576,5.41 c0.192,0.768-0.188,2.672-1.141,5.713c-0.955,3.053-0.857,5.342,0.285,6.862v0.574c1.524,6.472,4.569,11.714,9.141,15.713 c4.571,3.987,9.723,5.987,15.431,5.987h2.86c24.768-3.056,46.479-7.232,65.144-12.568c99.813-25.521,187.435-71.616,262.86-138.288 c28.569,3.047,56.19,4.569,82.852,4.569c92.95,0,178.674-16.283,257.145-48.863c78.476-32.577,140.572-76.945,186.281-133.131 c45.721-56.186,68.577-117.427,68.577-183.714C1024.812,373.392,1001.959,312.15,956.238,255.96z M891.953,585.39 c-39.822,44.945-93.537,80.665-161.153,107.138c-67.616,26.464-140.29,39.712-217.999,39.712c-23.236,0-47.996-1.521-74.282-4.575 l-32.572-3.419l-24.571,21.72c-46.851,41.146-99.237,73.712-157.142,97.714c17.521-30.851,30.854-63.617,40.002-98.277 l15.427-54.864l-49.713-28.56c-49.523-28.206-87.9-61.632-115.144-100.3c-27.24-38.659-40.854-79.336-40.854-121.999 c0-52.191,19.904-100.759,59.712-145.712c39.819-44.949,93.526-80.666,161.148-107.141c67.621-26.478,140.28-39.728,218-39.728 c77.713,0,150.367,13.244,217.983,39.72c67.616,26.477,121.331,62.191,161.153,107.14c39.811,44.953,59.711,93.522,59.711,145.711 C951.66,491.858,931.76,540.438,891.953,585.39z"/>
  </symbol>

  <symbol id="icon-plane" viewBox="0 0 1024 1024">
    <path d="M29.095,521.479c-38.767,20.375-37.199,50.156,3.449,66.248l120.479,47.648 c40.647,16.092,102.298,7.314,136.78-19.645l523.089-412.536c34.379-27.063,38.036-23.093,8.15,8.882l-413.476,442.63 c-29.989,31.87-21.108,71.055,19.644,86.833l14.107,5.539c40.856,15.777,107.418,42.318,147.961,58.829l133.646,54.439 c40.544,16.406,73.771,30.094,73.876,30.408c0,0.209,0.21,1.044,0.419,1.044c0.208,0.104,9.821-34.482,21.212-76.697 l203.551-748.479c11.494-42.215-10.763-60.188-49.529-39.812L29.095,521.479z"/>
    <path d="M359.709,1011.339c-2.404,7.105,82.34-122.778,82.34-122.778c24.033-36.572,10.448-80.251-30.094-96.76 L319.48,753.87c-40.438-16.615-59.874,2.821-43.156,43.363C276.324,797.338,362.113,1004.024,359.709,1011.339z"/>
    <path d="M29.095,521.479c-38.767,20.375-37.199,50.156,3.449,66.248l120.479,47.648 c40.647,16.092,102.298,7.314,136.78-19.645l523.089-412.536c34.379-27.063,38.036-23.093,8.15,8.882l-413.476,442.63 c-29.989,31.87-21.108,71.055,19.644,86.833l14.107,5.539c40.856,15.777,107.418,42.318,147.961,58.829l133.646,54.439 c40.544,16.406,73.771,30.094,73.876,30.408c0,0.209,0.21,1.044,0.419,1.044c0.208,0.104,9.821-34.482,21.212-76.697 l203.551-748.479c11.494-42.215-10.763-60.188-49.529-39.812L29.095,521.479z"/>
    <path d="M359.709,1011.339c-2.404,7.105,82.34-122.778,82.34-122.778c24.033-36.572,10.448-80.251-30.094-96.76 L319.48,753.87c-40.438-16.615-59.874,2.821-43.156,43.363C276.324,797.338,362.113,1004.024,359.709,1011.339z"/>
  </symbol>

  <symbol id="icon-user" viewBox="0 0 1024 1024">
    <path d="M511.991,0.997C229.229,0.997,0,230.233,0,512.995c0,282.755,229.229,512.009,511.991,512.009 S1024,795.75,1024,512.995C1024,230.226,794.753,0.997,511.991,0.997z M513.552,754.547v-0.007h-3.127H291.722 c0-159.938,140.468-159.899,171.639-201.722l3.566-19.07c-43.793-22.193-74.708-75.702-74.708-138.283 c0-82.447,53.631-149.295,119.772-149.295c66.142,0,119.772,66.848,119.772,149.295c0,62.048-30.365,115.223-73.576,137.768 l4.063,21.672c34.199,39.794,169.994,42.388,169.994,199.643H513.552z"/>
  </symbol>

  <symbol id="icon-caret-up" viewBox="0 0 1024 1024">
    <path d="M512.5,205c18.3,0,36.7,7.3,50.6,22l439.4,462.4c27.9,29.4,27.9,77.1,0,106.5c-27.9,29.4-73.2,29.4-101.2,0 L512.5,386.8L123.7,795.9c-27.9,29.4-73.3,29.4-101.2,0c-28-29.4-28-77.1,0-106.5L461.9,227C475.9,212.4,494.2,205,512.5,205z" />
  </symbol>

  <symbol id="icon-caret-right" viewBox="0 0 1024 1024">
    <path d="M819,511.5c0,18.3-7.3,36.7-22,50.6l-462.4,439.4c-29.4,27.9-77.1,27.9-106.5,0c-29.4-27.9-29.4-73.2,0-101.2l409.2-388.9 L228.1,122.7c-29.4-27.9-29.4-73.3,0-101.2c29.4-28,77.1-28,106.5,0l462.3,439.4C811.6,474.9,819,493.2,819,511.5z" />
  </symbol>

  <symbol id="icon-caret-down" viewBox="0 0 1024 1024">
    <path d="M512.5,818c-18.3,0-36.7-7.3-50.6-22L22.5,333.5c-27.9-29.4-27.9-77.1,0-106.5c27.9-29.4,73.2-29.4,101.2,0 l388.9,409.2l388.8-409.1c27.9-29.4,73.3-29.4,101.2,0c28,29.4,28,77.1,0,106.5L563.1,795.9C549.1,810.6,530.8,818,512.5,818z" />
  </symbol>

  <symbol id="icon-caret-left" viewBox="0 0 1024 1024">
    <path d="M206,511.5c0-18.3,7.3-36.7,22-50.6L690.4,21.4c29.4-27.9,77.1-27.9,106.5,0c29.4,27.9,29.4,73.2,0,101.2 L387.8,511.5l409.1,388.8c29.4,27.9,29.4,73.3,0,101.2c-29.4,28-77.1,28-106.5,0L228.1,562.1C213.4,548.1,206,529.8,206,511.5z" />
  </symbol>

  <symbol id="icon-totop" viewBox="0 0 1024 1024">
    <path d="M512.5,205c18.3,0,36.7,7.3,50.6,22l439.4,462.4c27.9,29.4,27.9,77.1,0,106.5c-27.9,29.4-73.2,29.4-101.2,0 L512.5,386.8L123.7,795.9c-27.9,29.4-73.3,29.4-101.2,0c-28-29.4-28-77.1,0-106.5L461.9,227C475.9,212.4,494.2,205,512.5,205z" />
  </symbol>

  <symbol id="icon-download" viewBox="0 0 1024 1024">
    <path d="M480.2,824c1.1,1.1,2.2,2.1,3.4,3c0.5,0.5,1.1,0.8,1.6,1.2c0.7,0.5,1.3,1,2,1.5c0.7,0.4,1.3,0.8,2,1.2 c0.6,0.4,1.2,0.8,1.9,1.1c0.7,0.4,1.4,0.7,2.1,1c0.7,0.3,1.3,0.6,2,0.9c0.7,0.3,1.4,0.5,2.1,0.8c0.7,0.3,1.4,0.6,2.2,0.8 c0.7,0.2,1.4,0.4,2.1,0.6c0.8,0.2,1.5,0.4,2.3,0.6c0.8,0.2,1.6,0.3,2.5,0.4c0.7,0.1,1.3,0.3,2,0.3c1.5,0.2,3.1,0.3,4.6,0.3 c1.5,0,3.1-0.1,4.6-0.3c0.7,0,1.4-0.2,2.1-0.3c0.8-0.1,1.6-0.2,2.4-0.4c0.8-0.2,1.6-0.4,2.3-0.6c0.7-0.2,1.4-0.4,2.1-0.6 c0.8-0.2,1.5-0.5,2.2-0.8c0.7-0.3,1.4-0.5,2-0.8c0.7-0.3,1.4-0.6,2-1c0.7-0.3,1.4-0.6,2.1-1c0.6-0.4,1.3-0.8,1.9-1.1 c0.7-0.4,1.4-0.8,2-1.2c0.7-0.5,1.3-1,2-1.5c0.6-0.5,1.1-0.8,1.7-1.3c1.1-0.9,2.2-1.9,3.2-2.9c0-0.1,0.1-0.1,0.2-0.1l216.4-216.4 c18.1-18.1,18.1-47.5,0-65.6c-18.1-18.1-47.5-18.1-65.6,0L559.4,679.3V49.4C559.4,23.8,538.6,3,513,3c-25.6,0-46.4,20.8-46.4,46.4 v629.9L329.4,542c-18.1-18.1-47.5-18.1-65.6,0c-18.1,18.1-18.1,47.4,0,65.6L480.2,824z" />
    <path d="M976.6,930.2H49.4C23.8,930.2,3,951,3,976.6c0,25.6,20.8,46.4,46.4,46.4h927.3c25.6,0,46.4-20.8,46.4-46.4 C1023,951,1002.2,930.2,976.6,930.2z"/>
  </symbol>

  <symbol id="icon-info" viewBox="0 0 1024 1024">
    <path d="M418.909,233.725H605.11c12.595,0,23.5-4.602,32.724-13.816c9.194-9.205,13.809-20.118,13.809-32.725 V47.548c0-12.603-4.614-23.508-13.826-32.732C628.607,5.616,617.688,1,605.088,1H418.906c-12.6,0-23.507,4.616-32.724,13.816 c-9.209,9.214-13.816,20.129-13.816,32.732v139.636c0,12.607,4.607,23.52,13.816,32.725
             C395.399,229.123,406.307,233.725,418.909,233.725z"/>
    <path d="M730.903,852.629c-9.204-9.214-20.116-13.825-32.726-13.825H651.63V419.903 c0-12.602-4.604-23.508-13.809-32.72c-9.221-9.212-20.134-13. h46.55v279.264h-46.55c-12.607,0-23.513,4.609-32.724,13.823c-9.216,9.206-13.816,20.117-13.816,32.724v93.095 c0,12.603,4.602,23.515,13.816,32.741c9.209,9.194,20.117,13.809,32.724,13.809h372.351c12.606,0,23.52-4.614,32.726-13.809 c9.204-9.224,13.809-20.137,13.809-32.741v-93.095C744.712,872.749,740.135,861.833,730.903,852.629z"/>
  </symbol>

  <symbol id="icon-checked" viewBox="0 0 1024 1024">
    <path d="M1005.5 320.8L437.9 886c-12.4 13.9-27.8 20.1-46.3 18.5-17 1.6-31.7-4.6-44-18.5l-329-326.7C6.2 545.5 0 530.8 0 515.4c0-20.1 6.2-35.5 18.5-46.3l88-92.7c12.3-10.8 27.8-17 46.3-18.5 17 1.6 31.6 7.7 44 18.5l194.6 199.2 435.5-437.9c12.3-10.8 27-17 44-18.5 18.5 1.6 34 7.7 46.3 18.5l88 92.7c12.3 10.8 18.5 25.5 18.5 44 .3 17-5.9 32.5-18.2 46.4z" />
  </symbol>
</svg>
