<?xml version="1.0" encoding="utf-8"?>
<!DOCTYPE svg PUBLIC "-//W3C//DTD SVG 1.1//EN" "http://www.w3.org/Graphics/SVG/1.1/DTD/svg11.dtd">
<svg version="1.1" xmlns="http://www.w3.org/2000/svg" xmlns:xlink="http://www.w3.org/1999/xlink" x="0px" y="0px" width="1024px" height="180.543px" viewBox="0 0 1024 180.543">
  <path fill="#8e211a" d="M582.259,150.504c4.17-0.231,5.012-0.082,7.089-1.772c11.945-3.5,16.101-14.856,24.813-21.269 c11.938-8.78,23.294-16.167,35.454-24.82c7.217-5.139,11.514-13.055,21.269-15.951c0,1.772,0,3.544,0,5.324 c-22.706,13.546-41.04,32.395-62.04,47.854c-11.527,8.49-13.583,22.423-33.683,23.041c-1.973-1.772-0.171-0.641-3.544-1.772 c0-1.177,0-2.36,0-3.545c-4.074-5.153-1.408-21.335,0-26.585c0-3.545,0-7.09,0-10.635c3.544-10.642,7.097-21.275,10.642-31.91 c4.758-10.288,14.417-16.093,15.951-30.134c-0.596,0-1.185,0-1.772,0c-6.018,6.211-18.521,10.426-26.593,14.183 c1.005,2.703,1.288,2.941,1.772,7.089c-2.249,1.5-2.019,1.326-3.545,3.545c-4.617-1.616-12.02-2.547-14.179-7.089 c2.353-2.234,2.584-3.169,3.544-7.089c-1.184,0-2.36,0-3.544,0c-12.332-10.951-49.206-1.583-60.268,5.317 c-4.1,2.554-8.408,7.875-12.407,10.634c-5.805,4.006-10.202,4.714-12.406,12.406c-3.348,3.627-3.601,8.743-3.545,15.951 c7.849,6.985,11.494,17.88,17.724,26.593c3.545,2.949,7.089,5.905,10.634,8.862c0,2.36,0,4.729,0,7.089 c-5.403,5.213-4.111,7.276-15.951,7.09c-2.219-3.299-4.111-2.122-5.317-3.545c-4.245-4.997-2.186-17.687-8.862-21.269 c-2.956,0-5.909,0-8.862,0c-5.95-2.442-9.904-7.625-10.638-15.958c-1.642-2.808,1.825-12.98-1.772-17.724 c-2.748-8.81-12.22-18.673-19.5-23.041c-10.832-6.501-18.707-0.514-19.496-17.724c3.229-2.726,2.082-3.697,7.089-5.321 c2.815-2.442,7.827-2.338,10.634,0c6.509,1.873,14.618,7.227,17.728,12.41c0,1.772,0,3.545,0,5.317 c2.953,2.36,5.909,4.725,8.865,7.089c3.478,5.116,0.909,7.916,7.089,10.634c2.741,1.527,0.246,0.306,5.313,0 c7.801-25.68,41.055-32.654,67.361-40.768c7.924-2.443,23.354-9.082,35.447-5.317c7.335,2.283,12.377,14.749,17.731,12.407 c6.523-1.173,15.594-4.68,19.496-8.862c-5.437-3.366-5.578-6.81-5.317-15.955c1.549-1.687,2.584-4.844,3.545-7.089 c2.465-1.456,3.336-4.014,5.316-5.317c5.548-3.646,12.229-3.381,17.724-7.09c8.676-5.846,10.471-14.667,24.82-15.951 c1.452,1.408,3.865,2.123,5.317,3.545c1.676,1.344,1.869,2.197,3.545,3.545c-1.087,3.403-0.022,1.563-1.772,3.544 c-2.733,9.107-11.274,11.911-14.179,21.269c3.537,0,7.089,0,10.634,0c5.876-4.424,15.222-2.64,23.041-5.317 C687.885,21.21,706.859,12.561,722.29,8.7c0,1.181,0,2.365,0,3.545c4.893,5.462,2.986,14.302-1.772,17.724c0,0.592,0,1.184,0,1.772 c-0.596,0-1.185,0-1.772,0c0-0.588,0-1.181,0-1.772c-4.93-4.893-2.413-8.125-12.406-8.862c-4.319,3.764-9.815,2.975-15.959,5.317 c-10.105,3.857-23.167,8.847-33.675,12.407c-8.631,2.927-16.569,1.88-24.82,5.321c-9.123,3.805-12.467,15.046-17.724,23.044 C602.663,84.699,583.07,123.992,582.259,150.504L582.259,150.504z"/>
  <path fill="#8e211a" d="M339.415,58.33c30.119,0.756,50.654,22.516,58.496,46.085c0.592,7.089,1.18,14.187,1.772,21.275 c1.087,2.524,6.114,3.374,7.09,5.317c1.861,3.693,1.262,13.106,1.772,15.951c3.62-1.296,5.462-2.569,8.862,0 c1.646,1.988,1.166,1.497,1.772,5.317c-8.147,4.959-12.071,11.855-24.813,12.406c-1.556-1.966,0.183-0.201-1.772-1.772 c0.183-5.34,0.484-11.394-1.772-14.179c-7.086,8.124-39.949,26.131-51.406,30.13c-13.375,4.669-33.291-1.639-33.679-15.951 c9.793-3.038,9.29-11.595,14.183-19.496c8.345-13.486,19.425-29.684,33.675-37.227c3.228-1.706,23.751-5.712,24.82-7.09 c0-2.36,0-4.729,0-7.082c-1.772-1.988-0.648-0.179-1.776-3.552c-8.724-5.056-11.438-8.899-26.589-8.862 c-2.994,8.557-5.209,15.17-14.179,17.724c-10.482,8.758-18.256-6.903-17.724-17.724c5.987-3.924,4.785-8.333,8.862-14.179 C329.801,61.409,335.744,61.469,339.415,58.33L339.415,58.33z"/>
  <path fill="#FFFFFF" d="M369.549,111.504c-5.097,4.089-15.594,4.989-21.272,8.869c-7.823,5.332-29.33,35.484-30.13,47.854 c5.511,2.011,14.935,1.869,23.041,1.772c12.753-10.947,46.312-16.667,51.406-33.676 C383.899,127.775,383.788,114.952,369.549,111.504L369.549,111.504z"/>
  <path fill="#5E737A" d="M6.438,167.967L0.142,69.995h14.954l4.721,73.97h0.391l32.852-73.97h15.933l1.575,75.348h0.395 l35.999-75.348h13.378l-47.016,97.972h-16.13l-1.378-73.971H55.42l-32.855,73.971H6.438L6.438,167.967z M193.713,141.009 l-3.738,17.12c-13.375,7.998-26.753,11.997-40.131,11.997c-9.178,0-16.193-2.949-21.049-8.854 c-4.852-5.897-7.082-14.029-6.687-24.389c0.525-15.481,5.116-30.033,13.769-43.676c10.627-16.916,24.526-25.375,41.707-25.375 c5.768,0,10.426,1.638,13.967,4.918c3.541,3.277,5.179,8.132,4.918,14.555c-0.525,13.378-7.41,24.325-20.654,32.852 c-10.888,6.956-23.082,10.82-36.59,11.61c-0.525,6.687,0.588,12.257,3.34,16.718c2.886,4.855,7.279,7.283,13.181,7.283 C167.548,155.769,180.204,150.846,193.713,141.009L193.713,141.009z M141.387,118.385c8.523-0.261,16.786-2.681,24.783-7.275 c9.182-5.377,13.903-11.93,14.168-19.675c0.13-2.882-0.756-5.339-2.659-7.372c-1.902-2.033-4.163-3.05-6.788-3.05 c-6.688,0-13.114,4.457-19.276,13.379C146.109,102.129,142.698,110.127,141.387,118.385L141.387,118.385z M278.105,84.949 c-5.637-0.134-14.228,7.082-25.77,21.64c-12.194,15.08-19.478,28.589-21.834,40.519l-1.377,6.889 c3.411,2.227,7.473,3.344,12.198,3.344c11.934,0,22.423-8.006,31.475-24.001c7.342-13.375,11.278-26.161,11.803-38.359 C284.859,88.292,282.696,84.949,278.105,84.949L278.105,84.949z M210.04,167.967L240.729,25.34h15.933l-9.439,44.655l-9.644,40.132 h0.986c5.771-10.493,12.459-19.601,20.066-27.345c9.703-9.964,18.688-14.95,26.95-14.95c5.247,0,9.375,2.558,12.396,7.674 c2.751,4.587,3.999,9.897,3.734,15.929c-0.655,17.181-6.687,34.1-18.1,50.758c-12.85,18.625-27.539,27.934-44.063,27.934 c-4.982,0-9.443-0.722-13.378-2.159H210.04L210.04,167.967z"/>
  <path fill="#5E737A" d="M742.24,138.686l-3.731,17.112c-13.382,8.006-26.757,12.005-40.131,12.005 c-9.183,0-16.197-2.949-21.053-8.854c-4.855-5.897-7.082-14.03-6.688-24.396c0.521-15.475,5.116-30.026,13.77-43.669 c10.627-16.919,24.522-25.375,41.71-25.375c5.764,0,10.418,1.639,13.963,4.919c3.537,3.276,5.184,8.128,4.915,14.555 c-0.521,13.378-7.409,24.326-20.65,32.852c-10.887,6.948-23.085,10.82-36.594,11.609c-0.521,6.688,0.596,12.258,3.344,16.719 c2.89,4.855,7.283,7.275,13.181,7.275C716.079,153.438,728.738,148.522,742.24,138.686L742.24,138.686z M689.918,116.062 c8.52-0.261,16.785-2.688,24.783-7.275c9.183-5.377,13.903-11.938,14.164-19.675c0.134-2.882-0.752-5.339-2.658-7.376 c-1.899-2.029-4.155-3.046-6.784-3.046c-6.688,0-13.114,4.457-19.28,13.371C694.64,99.805,691.229,107.803,689.918,116.062 L689.918,116.062z M786.504,36.197h-22.229l2.949-13.181h37.972l-30.495,142.619h-16.13L786.504,36.197L786.504,36.197z M813.455,165.636l17.902-84.783h-21.053l2.956-13.181h37.965l-20.852,97.964H813.455L813.455,165.636z M850.242,21.051 c3.016,0,5.57,1.046,7.67,3.146c2.101,2.1,3.15,4.654,3.15,7.67c0,2.886-1.05,5.414-3.15,7.577c-2.1,2.163-4.654,3.243-7.67,3.243 c-2.882,0-5.406-1.08-7.573-3.243s-3.247-4.691-3.247-7.577c0-3.016,1.08-5.57,3.247-7.67S847.36,21.051,850.242,21.051 L850.242,21.051z M933.06,138.686l-3.739,17.112c-13.374,8.006-26.749,12.005-40.131,12.005c-9.175,0-16.197-2.949-21.045-8.854 c-4.855-5.897-7.082-14.03-6.688-24.396c0.521-15.475,5.108-30.026,13.77-43.669c10.619-16.919,24.522-25.375,41.703-25.375 c5.771,0,10.425,1.639,13.963,4.919c3.544,3.276,5.183,8.128,4.922,14.555c-0.521,13.378-7.409,24.326-20.657,32.852 c-10.88,6.948-23.078,10.82-36.587,11.609c-0.521,6.688,0.588,12.258,3.344,16.719c2.882,4.855,7.275,7.275,13.181,7.275 C906.898,153.438,919.551,148.522,933.06,138.686L933.06,138.686z M880.729,116.062c8.527-0.261,16.793-2.688,24.791-7.275 c9.182-5.377,13.903-11.938,14.164-19.675c0.134-2.882-0.752-5.339-2.658-7.376c-1.899-2.029-4.163-3.046-6.784-3.046 c-6.688,0-13.114,4.457-19.28,13.371C885.451,99.805,882.04,107.803,880.729,116.062L880.729,116.062z M969.847,145.574 l-4.326,20.062h-16.13l21.045-97.964h16.13l-9.637,40.131h0.983c16.331-28.193,31.738-42.294,46.23-42.294l0,0l-4.134,18.293 h-3.344c-5.376,0-13.769,7.149-25.178,21.439C979.55,120.329,972.342,133.771,969.847,145.574L969.847,145.574z"/>
</svg>
